<?xml version="1.0" encoding="UTF-8" standalone="no"?>
<!-- Generated by IcoMoon.io -->

<svg
   xmlns:dc="http://purl.org/dc/elements/1.1/"
   xmlns:cc="http://creativecommons.org/ns#"
   xmlns:rdf="http://www.w3.org/1999/02/22-rdf-syntax-ns#"
   xmlns:svg="http://www.w3.org/2000/svg"
   xmlns="http://www.w3.org/2000/svg"
   xmlns:sodipodi="http://sodipodi.sourceforge.net/DTD/sodipodi-0.dtd"
   xmlns:inkscape="http://www.inkscape.org/namespaces/inkscape"
   version="1.1"
   width="18.667"
   height="14"
   viewBox="0 0 18.667 14"
   id="svg2"
   inkscape:version="0.91 r13725"
   sodipodi:docname="Folder-Drive.Svg">
  <metadata
     id="metadata11">
    <rdf:RDF>
      <cc:Work
         rdf:about="">
        <dc:format>image/svg+xml</dc:format>
        <dc:type
           rdf:resource="http://purl.org/dc/dcmitype/StillImage" />
        <dc:title></dc:title>
      </cc:Work>
    </rdf:RDF>
  </metadata>
  <defs
     id="defs9" />
  <sodipodi:namedview
     pagecolor="#ffffff"
     bordercolor="#666666"
     borderopacity="1"
     objecttolerance="10"
     gridtolerance="10"
     guidetolerance="10"
     inkscape:pageopacity="0"
     inkscape:pageshadow="2"
     inkscape:window-width="1366"
     inkscape:window-height="745"
     id="namedview7"
     showgrid="false"
     inkscape:zoom="23.8396"
     inkscape:cx="21.226907"
     inkscape:cy="-0.57870668"
     inkscape:window-x="-8"
     inkscape:window-y="-8"
     inkscape:window-maximized="1"
     inkscape:current-layer="svg2" />
  <g
     id="icomoon-ignore"
     transform="translate(0,-434)" />
  <path
     d="m 12.638889,10.5 q 0,0.36094 -0.28559,0.61797 -0.285591,0.25703 -0.686632,0.25703 -0.401042,0 -0.686632,-0.25703 -0.28559,-0.25703 -0.28559,-0.61797 0,-0.36094 0.28559,-0.61797 0.28559,-0.25703 0.686632,-0.25703 0.401041,0 0.686632,0.25703 0.28559,0.25703 0.28559,0.61797 z m 3.111111,0 q 0,0.36094 -0.28559,0.61797 -0.28559,0.25703 -0.686632,0.25703 -0.401042,0 -0.686632,-0.25703 -0.285591,-0.25703 -0.285591,-0.61797 0,-0.36094 0.285591,-0.61797 0.28559,-0.25703 0.686632,-0.25703 0.401042,0 0.686632,0.25703 Q 15.75,10.13906 15.75,10.5 Z m 1.361111,1.75 0,-3.5 q 0,-0.14219 -0.115451,-0.24609 Q 16.880208,8.4 16.722222,8.4 L 1.9444445,8.4 Q 1.7864583,8.4 1.671007,8.50391 1.5555555,8.60781 1.5555555,8.75 l 0,3.5 q 0,0.14219 0.1154515,0.24609 Q 1.7864583,12.6 1.9444445,12.6 l 14.7777775,0 q 0.157986,0 0.273438,-0.10391 0.115451,-0.1039 0.115451,-0.24609 z M 2.1631945,7 16.503472,7 14.595486,1.72813 Q 14.546876,1.58594 14.401042,1.49297 14.255208,1.4 14.08507,1.4 l -9.5034728,0 Q 4.4114583,1.4 4.265625,1.493 4.1197917,1.586 4.0711805,1.72816 Z m 16.5034725,1.75 0,3.5 q 0,0.72187 -0.571181,1.23594 Q 17.524305,14 16.722222,14 L 1.9444445,14 Q 1.1423611,14 0.57118054,13.48594 0,12.97187 0,12.25 L 0,8.75 Q 0,8.47656 0.19444445,7.92969 L 2.5885417,1.30156 Q 2.7951389,0.72187 3.3541667,0.36094 3.9131945,0 4.5815972,0 L 14.08507,0 q 0.668402,0 1.22743,0.36094 0.559028,0.36093 0.765625,0.94062 l 2.394097,6.62813 Q 18.666667,8.47656 18.666667,8.75 Z"
     id="path5"
     inkscape:connector-curvature="0" />
</svg>
